<svg width="110" height="18" viewBox="0 0 110 18" fill="none" xmlns="http://www.w3.org/2000/svg">
<path d="M16.4602 6.88426C16.4131 6.74541 16.3263 6.6234 16.2106 6.5333C16.0949 6.44321 15.9554 6.38896 15.8092 6.37726L11.5335 6.03751L9.68324 1.94176C9.62431 1.80985 9.52847 1.6978 9.40727 1.61915C9.28608 1.54051 9.14471 1.49861 9.00023 1.49854C8.85575 1.49846 8.71434 1.54019 8.59306 1.61871C8.47178 1.69722 8.37581 1.80916 8.31674 1.94101L6.46649 6.03751L2.19074 6.37726C2.04708 6.38864 1.90974 6.44117 1.79516 6.52856C1.68057 6.61595 1.59358 6.7345 1.54461 6.87003C1.49563 7.00556 1.48674 7.15234 1.519 7.29279C1.55125 7.43324 1.62329 7.56143 1.72649 7.66201L4.88624 10.7423L3.76874 15.5813C3.73481 15.7277 3.74568 15.881 3.79995 16.0212C3.85423 16.1615 3.94939 16.2821 4.07309 16.3676C4.19679 16.453 4.34333 16.4994 4.49368 16.5005C4.64403 16.5016 4.79125 16.4576 4.91624 16.374L8.99999 13.6515L13.0837 16.374C13.2115 16.4588 13.3622 16.5025 13.5155 16.4991C13.6688 16.4958 13.8174 16.4455 13.9413 16.3552C14.0652 16.2649 14.1585 16.1387 14.2086 15.9938C14.2587 15.8489 14.2632 15.6921 14.2215 15.5445L12.8497 10.7445L16.2517 7.68301C16.4745 7.48201 16.5562 7.16851 16.4602 6.88426Z" fill="#F8C100"/>
<path d="M39.4602 6.88426C39.4131 6.74541 39.3263 6.6234 39.2106 6.5333C39.0949 6.44321 38.9554 6.38896 38.8092 6.37726L34.5335 6.03751L32.6832 1.94176C32.6243 1.80985 32.5285 1.6978 32.4073 1.61915C32.2861 1.54051 32.1447 1.49861 32.0002 1.49854C31.8558 1.49846 31.7143 1.54019 31.5931 1.61871C31.4718 1.69722 31.3758 1.80916 31.3167 1.94101L29.4665 6.03751L25.1907 6.37726C25.0471 6.38864 24.9097 6.44117 24.7952 6.52856C24.6806 6.61595 24.5936 6.7345 24.5446 6.87003C24.4956 7.00556 24.4867 7.15234 24.519 7.29279C24.5513 7.43324 24.6233 7.56143 24.7265 7.66201L27.8862 10.7423L26.7687 15.5813C26.7348 15.7277 26.7457 15.881 26.8 16.0212C26.8542 16.1615 26.9494 16.2821 27.0731 16.3676C27.1968 16.453 27.3433 16.4994 27.4937 16.5005C27.644 16.5016 27.7912 16.4576 27.9162 16.374L32 13.6515L36.0837 16.374C36.2115 16.4588 36.3622 16.5025 36.5155 16.4991C36.6688 16.4958 36.8174 16.4455 36.9413 16.3552C37.0652 16.2649 37.1585 16.1387 37.2086 15.9938C37.2587 15.8489 37.2632 15.6921 37.2215 15.5445L35.8497 10.7445L39.2517 7.68301C39.4745 7.48201 39.5562 7.16851 39.4602 6.88426Z" fill="#F8C100"/>
<path d="M62.4602 6.88426C62.4131 6.74541 62.3263 6.6234 62.2106 6.5333C62.0949 6.44321 61.9554 6.38896 61.8092 6.37726L57.5335 6.03751L55.6832 1.94176C55.6243 1.80985 55.5285 1.6978 55.4073 1.61915C55.2861 1.54051 55.1447 1.49861 55.0002 1.49854C54.8558 1.49846 54.7143 1.54019 54.5931 1.61871C54.4718 1.69722 54.3758 1.80916 54.3167 1.94101L52.4665 6.03751L48.1907 6.37726C48.0471 6.38864 47.9097 6.44117 47.7952 6.52856C47.6806 6.61595 47.5936 6.7345 47.5446 6.87003C47.4956 7.00556 47.4867 7.15234 47.519 7.29279C47.5513 7.43324 47.6233 7.56143 47.7265 7.66201L50.8862 10.7423L49.7687 15.5813C49.7348 15.7277 49.7457 15.881 49.8 16.0212C49.8542 16.1615 49.9494 16.2821 50.0731 16.3676C50.1968 16.453 50.3433 16.4994 50.4937 16.5005C50.644 16.5016 50.7912 16.4576 50.9162 16.374L55 13.6515L59.0837 16.374C59.2115 16.4588 59.3622 16.5025 59.5155 16.4991C59.6688 16.4958 59.8174 16.4455 59.9413 16.3552C60.0652 16.2649 60.1585 16.1387 60.2086 15.9938C60.2587 15.8489 60.2632 15.6921 60.2215 15.5445L58.8497 10.7445L62.2517 7.68301C62.4745 7.48201 62.5562 7.16851 62.4602 6.88426Z" fill="#F8C100"/>
<path d="M85.4602 6.88426C85.4131 6.74541 85.3263 6.6234 85.2106 6.5333C85.0949 6.44321 84.9554 6.38896 84.8092 6.37726L80.5335 6.03751L78.6832 1.94176C78.6243 1.80985 78.5285 1.6978 78.4073 1.61915C78.2861 1.54051 78.1447 1.49861 78.0002 1.49854C77.8558 1.49846 77.7143 1.54019 77.5931 1.61871C77.4718 1.69722 77.3758 1.80916 77.3167 1.94101L75.4665 6.03751L71.1907 6.37726C71.0471 6.38864 70.9097 6.44117 70.7952 6.52856C70.6806 6.61595 70.5936 6.7345 70.5446 6.87003C70.4956 7.00556 70.4867 7.15234 70.519 7.29279C70.5513 7.43324 70.6233 7.56143 70.7265 7.66201L73.8862 10.7423L72.7687 15.5813C72.7348 15.7277 72.7457 15.881 72.8 16.0212C72.8542 16.1615 72.9494 16.2821 73.0731 16.3676C73.1968 16.453 73.3433 16.4994 73.4937 16.5005C73.644 16.5016 73.7912 16.4576 73.9162 16.374L78 13.6515L82.0837 16.374C82.2115 16.4588 82.3622 16.5025 82.5155 16.4991C82.6688 16.4958 82.8174 16.4455 82.9413 16.3552C83.0652 16.2649 83.1585 16.1387 83.2086 15.9938C83.2587 15.8489 83.2632 15.6921 83.2215 15.5445L81.8497 10.7445L85.2517 7.68301C85.4745 7.48201 85.5562 7.16851 85.4602 6.88426Z" fill="#F8C100"/>
<path d="M108.46 6.88426C108.413 6.74541 108.326 6.6234 108.211 6.5333C108.095 6.44321 107.955 6.38896 107.809 6.37726L103.533 6.03751L101.683 1.94176C101.624 1.80985 101.528 1.6978 101.407 1.61915C101.286 1.54051 101.145 1.49861 101 1.49854C100.856 1.49846 100.714 1.54019 100.593 1.61871C100.472 1.69722 100.376 1.80916 100.317 1.94101L98.4665 6.03751L94.1907 6.37726C94.0471 6.38864 93.9097 6.44117 93.7952 6.52856C93.6806 6.61595 93.5936 6.7345 93.5446 6.87003C93.4956 7.00556 93.4867 7.15234 93.519 7.29279C93.5513 7.43324 93.6233 7.56143 93.7265 7.66201L96.8862 10.7423L95.7687 15.5813C95.7348 15.7277 95.7457 15.881 95.8 16.0212C95.8542 16.1615 95.9494 16.2821 96.0731 16.3676C96.1968 16.453 96.3433 16.4994 96.4937 16.5005C96.644 16.5016 96.7912 16.4576 96.9162 16.374L101 13.6515L105.084 16.374C105.211 16.4588 105.362 16.5025 105.515 16.4991C105.669 16.4958 105.817 16.4455 105.941 16.3552C106.065 16.2649 106.158 16.1387 106.209 15.9938C106.259 15.8489 106.263 15.6921 106.221 15.5445L104.85 10.7445L108.252 7.68301C108.474 7.48201 108.556 7.16851 108.46 6.88426Z" fill="#EFF2F7"/>
</svg>
