<svg width="46" height="46" viewBox="0 0 46 46" fill="none" xmlns="http://www.w3.org/2000/svg">
<circle cx="23" cy="23" r="22.5" stroke="white"/>
<path d="M22.9953 14.6667C21.3471 14.6667 19.7359 15.1554 18.3655 16.0711C16.9951 16.9868 15.927 18.2883 15.2963 19.811C14.6655 21.3337 14.5005 23.0093 14.8221 24.6258C15.1436 26.2423 15.9373 27.7271 17.1027 28.8926C18.2681 30.058 19.753 30.8517 21.3695 31.1732C22.986 31.4948 24.6616 31.3297 26.1843 30.699C27.707 30.0683 29.0085 29.0002 29.9242 27.6298C30.8399 26.2594 31.3286 24.6482 31.3286 23C31.3287 21.9056 31.1132 20.822 30.6944 19.8109C30.2757 18.7998 29.6619 17.8811 28.888 17.1073C28.1142 16.3334 27.1955 15.7196 26.1844 15.3008C25.1733 14.8821 24.0896 14.6666 22.9953 14.6667ZM25.6449 27.2937C25.6137 27.3715 25.5662 27.4417 25.5057 27.4997C25.4451 27.5576 25.3729 27.6019 25.2938 27.6297C25.2147 27.6574 25.1307 27.6679 25.0472 27.6605C24.9637 27.6531 24.8828 27.6279 24.8099 27.5867L22.5476 25.8288L21.0957 27.1684C21.062 27.1932 21.0226 27.2093 20.9811 27.2149C20.9396 27.2206 20.8973 27.2157 20.8582 27.2008L21.1365 24.7104L21.1454 24.7175L21.1511 24.6683C21.1511 24.6683 25.222 20.9621 25.3878 20.8042C25.5557 20.6467 25.5003 20.6125 25.5003 20.6125C25.5099 20.4204 25.199 20.6125 25.199 20.6125L19.8053 24.0825L17.559 23.3175C17.559 23.3175 17.214 23.1938 17.1815 22.9217C17.1474 22.6517 17.5703 22.505 17.5703 22.505L26.5011 18.9571C26.5011 18.9571 27.2353 18.63 27.2353 19.1717L25.6449 27.2937Z" fill="white"/>
</svg>
