<svg width="20" height="20" viewBox="0 0 20 20" fill="none" xmlns="http://www.w3.org/2000/svg">
<circle cx="10" cy="10" r="10" fill="#1D72D2"/>
<path d="M9.08008 10.8115H9.95898C10.8867 10.8115 11.4629 11.2803 11.4629 12.042C11.4629 12.7305 10.8477 13.2188 9.98828 13.2188C9.09961 13.2188 8.54297 12.7549 8.47461 12.0811H7.4248C7.49316 13.2969 8.46973 14.1318 9.98828 14.1318C11.458 14.1318 12.5762 13.2871 12.5762 12.0566C12.5762 11.0703 11.8926 10.4209 10.833 10.3477V10.3281C11.707 10.1719 12.2832 9.54199 12.2832 8.66309C12.2832 7.5791 11.3115 6.82227 9.97852 6.82227C8.58203 6.82227 7.64941 7.61816 7.56641 8.85352H8.59668C8.66016 8.16016 9.16797 7.7207 9.92969 7.7207C10.7646 7.7207 11.2139 8.15527 11.2139 8.80957C11.2139 9.47363 10.6914 9.95215 9.92969 9.95215H9.08008V10.8115Z" fill="white"/>
</svg>
